<?xml version="1.0" standalone="no"?><!DOCTYPE svg PUBLIC "-//W3C//DTD SVG 1.1//EN" "http://www.w3.org/Graphics/SVG/1.1/DTD/svg11.dtd"><svg t="1714322069387" class="icon" viewBox="0 0 1024 1024" version="1.1" xmlns="http://www.w3.org/2000/svg" p-id="5947" xmlns:xlink="http://www.w3.org/1999/xlink" width="200" height="200"><path d="M755.496861 918.722141c75.198471 61.381113 192.881393 41.187784 191.749906 28.394546-4.77372-53.799323-5.298168-115.221732-56.198572-170.945409" fill="#FFFFFF" p-id="5948"></path><path d="M755.496861 918.722141c75.198471 61.381113 192.881393 41.187784 191.749906 28.394546-4.77372-53.799323-5.298168-115.221732-56.198572-170.945409" fill="#9C9CBC" p-id="5949"></path><path d="M273.854991 918.722141c-75.194341 61.381113-192.881393 41.187784-191.745777 28.394546 4.319473-48.686984 5.161894-103.605405 42.988253-154.893984" fill="#FFFFFF" p-id="5950"></path><path d="M273.854991 918.722141c-75.194341 61.381113-192.881393 41.187784-191.745777 28.394546 4.319473-48.686984 5.161894-103.605405 42.988253-154.893984" fill="#9C9CBC" p-id="5951"></path><path d="M974.596546 510.090099c0 255.484843-207.107573 466.420477-462.596546 466.420477-255.488973 0-462.596546-210.935634-462.596546-466.420477C49.403454 254.601127 256.511027 47.489424 512 47.489424c255.488973 0 462.596546 207.111703 462.596546 462.600675z" fill="#FFE578" p-id="5952"></path><path d="M512 1007.481939c-272.155696 0-493.567909-223.130092-493.567909-497.39184C18.432091 237.934404 239.844304 16.518061 512 16.518061s493.567909 221.416343 493.567909 493.567909c0 274.265878-221.412214 497.39597-493.567909 497.395969zM512 78.460788C273.999524 78.460788 80.374818 272.089623 80.374818 510.090099c0 240.110658 193.628836 435.449113 431.625182 435.449113s431.625182-195.342584 431.625182-435.449113C943.625182 272.089623 750.000476 78.460788 512 78.460788z" fill="#6E6E96" p-id="5953"></path><path d="M511.797654 47.489424c-235.06852 0-429.176379 175.339213-458.698284 402.363438 1.094322 2.151477 1.726137 3.287094 1.726138 3.287094h250.603756l42.050853-180.088156 38.231051 180.088156h585.189462C942.832315 224.525868 747.997661 47.489424 511.797654 47.489424z" fill="#9C9CBC" p-id="5954"></path><path d="M250.056595 613.31146a80.286033 68.81424 90 1 0 137.628481 0 80.286033 68.81424 90 1 0-137.628481 0Z" fill="#6E6E96" p-id="5955"></path><path d="M633.329284 613.31146a80.286033 68.810111 90 1 0 137.620222 0 80.286033 68.810111 90 1 0-137.620222 0Z" fill="#6E6E96" p-id="5956"></path><path d="M1005.906529 484.111319H360.624363l-14.585447-68.694484-16.039037 68.694484H36.6639l-8.919752-15.939928s-0.825903-1.470107-2.242327-4.26166l-4.352509-8.543966 1.234725-9.506144C54.21434 201.094999 264.613136 16.518061 511.797654 16.518061c248.964339 0 459.548963 186.084211 489.847216 432.847518l4.261659 34.74574z m-595.112686-61.942727h523.659686C893.521775 223.931218 717.662243 78.460788 511.797654 78.460788 306.436866 78.460788 130.110698 224.117046 89.137649 422.168592h191.712741l36.463618-156.157615 60.456102 0.611168 33.023733 155.546447z" fill="#6E6E96" p-id="5957"></path></svg>